<svg xmlns="http://www.w3.org/2000/svg" viewBox="0 0 74.25 70.82"><defs><style>.cls-1{fill:#4d4d4d;}</style></defs><title>ic_Star</title><g id="Layer_2" data-name="Layer 2"><g id="Menu"><path class="cls-1" d="M34.5,2.19c1.44-2.92,3.8-2.92,5.25,0l7.12,14.42a12.66,12.66,0,0,0,8.49,6.17l15.91,2.31c3.23.47,4,2.71,1.62,5L61.37,41.3a12.66,12.66,0,0,0-3.24,10l2.72,15.85c.55,3.21-1.36,4.6-4.24,3.08L42.37,62.72a12.66,12.66,0,0,0-10.49,0L17.65,70.2c-2.88,1.52-4.79.13-4.24-3.08l2.72-15.85a12.66,12.66,0,0,0-3.24-10L1.37,30.08C-1,27.8-.24,25.56,3,25.09L18.9,22.78a12.66,12.66,0,0,0,8.49-6.17Z"/></g></g></svg>