<svg xmlns="http://www.w3.org/2000/svg" viewBox="0 0 82 80.3"><defs><style>.cls-1{fill:#4d4d4d;}</style></defs><title>ic_Settings</title><g id="Layer_2" data-name="Layer 2"><g id="Menu"><path class="cls-1" d="M70.74,30.94,68.66,26s4.82-10.87,4.4-11.3L66.68,8.51C66.23,8.09,55.36,13,55.36,13l-5-2s-4.43-11-5-11h-9c-.63,0-4.73,11-4.73,11l-5,2S15.49,8.35,15.06,8.77L8.7,15c-.45.42,4.62,11.07,4.62,11.07L11.26,31S0,35.34,0,35.91v8.83c0,.61,11.28,4.64,11.28,4.64l2.07,4.9S8.53,65.14,9,65.55l6.36,6.25c.44.41,11.31-4.54,11.31-4.54l5,2s4.42,11,5,11h9c.61,0,4.71-11,4.71-11l5-2s11.07,4.73,11.5,4.3l6.38-6.23c.45-.42-4.63-11.07-4.63-11.07l2.07-4.91S82,45,82,44.37V35.56c0-.61-11.26-4.62-11.26-4.62Zm-16.58,9.2A13.15,13.15,0,1,1,41,27.28,13,13,0,0,1,54.16,40.14Zm0,0"/></g></g></svg>