<svg xmlns="http://www.w3.org/2000/svg" viewBox="0 0 64.8 82"><defs><style>.cls-1{fill:#006383;}.cls-2{fill:#fff;}</style></defs><title>ic_Add_Pin_ic</title><g id="Layer_2" data-name="Layer 2"><g id="GUI"><path class="cls-1" d="M55,27.67a27.5,27.5,0,1,0-55,0c0,7.82,7.57,21.82,7.57,21.82L26.49,82,46.24,49.87S55,36.51,55,27.67Z"/><path class="cls-2" d="M27.38,42.91A15.95,15.95,0,1,1,43.12,27,15.84,15.84,0,0,1,27.38,42.91Z"/><polygon class="cls-1" points="57.65 66.42 57.65 59.24 51.44 59.24 51.44 66.42 44.21 66.42 44.21 72.71 51.44 72.71 51.44 80.11 57.65 80.11 57.65 72.71 64.8 72.71 64.8 66.42 57.65 66.42"/></g></g></svg>