<svg xmlns="http://www.w3.org/2000/svg" viewBox="0 0 134 134"><defs><style>.cls-1{fill:none;stroke:#1a1a1a;stroke-linecap:round;stroke-linejoin:round;stroke-width:6px;}</style></defs><title>ic_Bible_Off</title><g id="Layer_2" data-name="Layer 2"><g id="GUI"><rect class="cls-1" x="97" y="96" width="34" height="16" rx="4" ry="4"/><path class="cls-1" d="M120.5,112v12.5A6.52,6.52,0,0,1,114,131h0a6.52,6.52,0,0,1-6.5-6.5V112"/><rect class="cls-1" x="97" y="22" width="34" height="16" rx="4" ry="4" transform="translate(228 60) rotate(180)"/><path class="cls-1" d="M107.5,22V9.5A6.52,6.52,0,0,1,114,3h0a6.52,6.52,0,0,1,6.5,6.5V22"/><rect class="cls-1" x="3" y="96" width="34" height="16" rx="4" ry="4"/><path class="cls-1" d="M26.5,112v12.5A6.52,6.52,0,0,1,20,131h0a6.52,6.52,0,0,1-6.5-6.5V112"/><rect class="cls-1" x="3" y="22" width="34" height="16" rx="4" ry="4" transform="translate(40 60) rotate(180)"/><path class="cls-1" d="M13.5,22V9.5A6.52,6.52,0,0,1,20,3h0a6.52,6.52,0,0,1,6.5,6.5V22"/><line class="cls-1" x1="13" y1="38" x2="13" y2="96"/><line class="cls-1" x1="27" y1="96" x2="27" y2="38"/><line class="cls-1" x1="107" y1="38" x2="107" y2="96"/><line class="cls-1" x1="121" y1="96" x2="121" y2="38"/><line class="cls-1" x1="107" y1="38" x2="27" y2="38"/><line class="cls-1" x1="109" y1="96" x2="27" y2="96"/></g></g></svg>