<svg xmlns="http://www.w3.org/2000/svg" viewBox="0 0 101.34 120"><defs><style>.cls-1{fill:#1a1a1a;}</style></defs><title>ic_Handycap_Off</title><g id="Layer_2" data-name="Layer 2"><g id="GUI"><path class="cls-1" d="M62.09,102.4A31.46,31.46,0,0,1,17.6,57.91,4.19,4.19,0,0,0,11.67,52,39.85,39.85,0,1,0,68,108.33a4.19,4.19,0,1,0-5.93-5.93Zm0,0"/><path class="cls-1" d="M97.14,93.2H85.22L77.83,72.71a4.19,4.19,0,0,0-3.94-2.77H42.79V51.12H71.67a4.19,4.19,0,0,0,0-8.39H42.79V29.79a4.19,4.19,0,0,0-8.39,0V74.13a4.19,4.19,0,0,0,4.19,4.19H70.94l7.39,20.49a4.19,4.19,0,0,0,3.95,2.77H97.14a4.19,4.19,0,1,0,0-8.39Zm0,0"/><circle class="cls-1" cx="38.76" cy="10.19" r="10.19"/></g></g></svg>