<svg xmlns="http://www.w3.org/2000/svg" viewBox="0 0 134 112.81"><defs><style>.cls-1{fill:none;stroke:#369de8;stroke-linecap:round;stroke-linejoin:round;stroke-width:6px;}</style></defs><title>ic_Lesson_On</title><g id="Layer_2" data-name="Layer 2"><g id="GUI"><path class="cls-1" d="M73,96.93c4-4.41,9.5-6.65,16.25-6.65C97.12,90.29,105,93,112,95.45c6.1,2.11,11.85,4.1,16.91,4.1A2.06,2.06,0,0,0,131,97.48V14.33a2.06,2.06,0,0,0-2.06-2.06h0c-4.36,0-9.8-1.88-15.56-3.88C106.08,5.86,97.82,3,89.24,3c-9.92,0-16,4.35-19.3,8A25.22,25.22,0,0,0,67,14.94,25,25,0,0,0,64.06,11c-3.33-3.65-9.38-8-19.3-8C36.19,3,27.92,5.86,20.63,8.39c-5.76,2-11.2,3.88-15.56,3.88A2.06,2.06,0,0,0,3,14.33V97.48a2.06,2.06,0,0,0,2.06,2.06c5.06,0,10.82-2,16.91-4.1,7-2.42,14.9-5.16,22.78-5.16,6.76,0,12.22,2.24,16.25,6.65"/><path class="cls-1" d="M5.06,109.81c5.06,0,10.82-2,16.91-4.1,7-2.42,14.9-5.16,22.78-5.16,6.76,0,12.22,2.24,16.25,6.65a2.07,2.07,0,0,0,1.53.67h8.93a2.07,2.07,0,0,0,1.52-.67c4-4.41,9.5-6.65,16.25-6.65,7.88,0,15.8,2.74,22.78,5.16,6.1,2.11,11.85,4.1,16.91,4.1"/><line class="cls-1" x1="66.56" y1="24.72" x2="66.56" y2="86.72"/></g></g></svg>