<svg xmlns="http://www.w3.org/2000/svg" viewBox="0 0 69.21 103.17"><defs><style>.cls-1{fill:#3598db;}.cls-2{fill:#fff;}</style></defs><title>Pin_Blue_TXT</title><g id="Layer_2" data-name="Layer 2"><g id="GUI"><path class="cls-1" d="M69.21,34.81A34.6,34.6,0,1,0,0,34.81c0,9.84,9.53,27.46,9.53,27.46l23.8,40.9L58.17,62.75S69.21,45.94,69.21,34.81Z"/><path class="cls-2" d="M49.7,33.65a21.81,21.81,0,0,1-1.13,7.1A17,17,0,0,1,45.3,46.5a15.08,15.08,0,0,1-5.21,3.84,16.83,16.83,0,0,1-7,1.39,15.94,15.94,0,0,1-6.77-1.33,12.83,12.83,0,0,1-4.76-3.74,16.12,16.12,0,0,1-2.81-5.73,27.16,27.16,0,0,1-.92-7.28V16.1q1.58-.26,3.37-.5t3.69-.44q1.9-.21,3.82-.35t3.76-.15A19.21,19.21,0,0,1,40,16a14.58,14.58,0,0,1,5.45,3.9,16,16,0,0,1,3.22,6A27,27,0,0,1,49.7,33.65Zm-2.9,0A25.81,25.81,0,0,0,46,27.2,13.81,13.81,0,0,0,43.5,22,11.88,11.88,0,0,0,39,18.55a15.75,15.75,0,0,0-6.53-1.25q-3.08,0-6.09.29T21,18.24v15a28.39,28.39,0,0,0,.56,5.55,15.46,15.46,0,0,0,2,5.1,11,11,0,0,0,3.81,3.74,11.6,11.6,0,0,0,6,1.44A12.23,12.23,0,0,0,43.74,44a15.18,15.18,0,0,0,2.33-5A20.72,20.72,0,0,0,46.8,33.65Z"/></g></g></svg>