<svg xmlns="http://www.w3.org/2000/svg" viewBox="0 0 69.21 103.17"><defs><style>.cls-1{fill:#f39c11;}.cls-2{fill:#fff;}</style></defs><title>Pin_Yellow_TXT</title><g id="Layer_2" data-name="Layer 2"><g id="GUI"><path class="cls-1" d="M69.21,34.81A34.6,34.6,0,1,0,0,34.81c0,9.84,9.53,27.46,9.53,27.46l23.8,40.9L58.17,62.75S69.21,45.94,69.21,34.81Z"/><path class="cls-2" d="M27.75,40.85a12.57,12.57,0,0,1-.43,3.45A7,7,0,0,1,26,46.83,5.44,5.44,0,0,1,24,48.4a7.2,7.2,0,0,1-2.87.54,9.4,9.4,0,0,1-1.79-.17,7,7,0,0,1-1.53-.47L18.54,46q.58.14,1.14.22a9.15,9.15,0,0,0,1.27.08,3.64,3.64,0,0,0,1.7-.37,3.23,3.23,0,0,0,1.18-1,4.75,4.75,0,0,0,.69-1.59,8.52,8.52,0,0,0,.23-2V36.86a12.42,12.42,0,0,0-.12-1.72,9,9,0,0,0-.41-1.71,6.92,6.92,0,0,0-.78-1.57,5.25,5.25,0,0,0-1.21-1.28,5.82,5.82,0,0,0-1.71-.87,7.37,7.37,0,0,0-2.29-.33,7.45,7.45,0,0,0-1.61.18,7.58,7.58,0,0,0-1.6.54,6.72,6.72,0,0,0-1.42.9,4.42,4.42,0,0,0-1.05,1.26,5.89,5.89,0,0,0-.29.64,1.92,1.92,0,0,0-.13.69v15h-3V30.79A13.31,13.31,0,0,0,9,29.24a4.56,4.56,0,0,0-.49-1.54l2.6-1.12a4.77,4.77,0,0,1,.62,1.3A7.11,7.11,0,0,1,12,29.72,10.05,10.05,0,0,1,15,27.5a8.21,8.21,0,0,1,3.69-.81,9.93,9.93,0,0,1,3.91.72,7.83,7.83,0,0,1,2.85,2,8.7,8.7,0,0,1,1.74,3.09,12.56,12.56,0,0,1,.59,3.94Z"/><path class="cls-2" d="M34.91,23,33,30.81H30.37L32.83,23Zm5.34,0-2,7.84H35.71L38.19,23Z"/><path class="cls-2" d="M60.11,37.84a12.86,12.86,0,0,1-.68,4.4,9.58,9.58,0,0,1-1.85,3.16,10.17,10.17,0,0,1-2.76,2.16A18.68,18.68,0,0,1,51.44,49a31.44,31.44,0,0,1-3.73.9q-1.92.34-3.81.62l-.83-2.9,1.78-.2q.91-.11,1.8-.28t1.72-.37q.83-.2,1.54-.43L42.92,27h3.2l6.47,18.42a11.07,11.07,0,0,0,1.81-1.09,6.9,6.9,0,0,0,1.44-1.45,6.51,6.51,0,0,0,1-1.92,8.32,8.32,0,0,0,.34-2.5V27h3Z"/></g></g></svg>