<svg xmlns="http://www.w3.org/2000/svg" viewBox="0 0 69.21 103.17"><defs><style>.cls-1{fill:#9b58b5;}.cls-2{fill:#fff;}</style></defs><title>Pin_Purple_TXT</title><g id="Layer_2" data-name="Layer 2"><g id="GUI"><path class="cls-1" d="M69.21,34.81A34.6,34.6,0,1,0,0,34.81c0,9.84,9.53,27.46,9.53,27.46l23.8,40.9L58.17,62.75S69.21,45.94,69.21,34.81Z"/><path class="cls-2" d="M47.34,53.74h-2.9v-22a17.66,17.66,0,0,0-.82-5.84,8.56,8.56,0,0,0-2.43-3.69,8.4,8.4,0,0,0-3.75-1.86,25.15,25.15,0,0,0-5.27-.47,48.14,48.14,0,0,0-5.43.31q-2.71.31-4.67.69V53.74h-2.9V18.67q1.32-.29,3.08-.56t3.6-.45q1.85-.19,3.66-.31t3.28-.12A22.26,22.26,0,0,1,39,18a11,11,0,0,1,4.56,2.53A11.15,11.15,0,0,1,46.37,25a19.81,19.81,0,0,1,1,6.59Z"/></g></g></svg>