<svg xmlns="http://www.w3.org/2000/svg" viewBox="0 0 69.21 103.17"><defs><style>.cls-1{fill:#1bbc9b;}.cls-2{fill:#fff;}</style></defs><title>Pin_Green_TXT</title><g id="Layer_2" data-name="Layer 2"><g id="GUI"><path class="cls-1" d="M69.21,34.81A34.6,34.6,0,1,0,0,34.81c0,9.84,9.53,27.46,9.53,27.46l23.8,40.9L58.17,62.75S69.21,45.94,69.21,34.81Z"/><path class="cls-2" d="M47.09,49.46H43.6q-1.38-2-2.56-3.74l-2.29-3.33L36.57,39.2q-1.08-1.58-2.31-3.33l-2.65-3.74q-1.42-2-3.71-5.27a14,14,0,0,0-2.49,2.4,10.1,10.1,0,0,0-2.15,5.29,30.33,30.33,0,0,0-.16,3.27V49.46H20.2v-12a19.78,19.78,0,0,1,.34-3.85,12.34,12.34,0,0,1,1.08-3.16,15.19,15.19,0,0,1,1.86-2.83,18.28,18.28,0,0,1,3-2.78l-7-10,2.26-1.64L24.4,17l2.36,3.25,2.37,3.3,2.14,3q2.31,3.28,5.27,7.44a11,11,0,0,0,6.27-10.31V13.45h2.9V22.8a18.09,18.09,0,0,1-.48,4.35,13,13,0,0,1-1.44,3.54,11.14,11.14,0,0,1-2.46,2.86A31.8,31.8,0,0,1,37.92,36Z"/></g></g></svg>