<svg xmlns="http://www.w3.org/2000/svg" viewBox="0 0 69.21 103.17"><defs><style>.cls-1{fill:#e84c3d;}.cls-2{fill:#fff;}</style></defs><title>Pin_Red_TXT</title><g id="Layer_2" data-name="Layer 2"><g id="GUI"><path class="cls-1" d="M69.21,34.81A34.6,34.6,0,1,0,0,34.81c0,9.84,9.53,27.46,9.53,27.46l23.8,40.9L58.17,62.75S69.21,45.94,69.21,34.81Z"/><path class="cls-2" d="M48.7,47.74H45.8V25.89q0-6.15-3.68-9.08T31.65,13.87a61,61,0,0,0-7,.38V35.08q0,1.79-.06,3.46a27.83,27.83,0,0,1-.28,3.13,10.79,10.79,0,0,1-.7,2.61,6.66,6.66,0,0,1-1.3,2,6.27,6.27,0,0,1-2.23,1.44,7.57,7.57,0,0,1-2.87.57q-1,0-1.7,0T14,48.09l.38-2.64a12.81,12.81,0,0,0,1.3.16q.63,0,1.13,0a5.12,5.12,0,0,0,2.45-.54,3.84,3.84,0,0,0,1.61-1.76,8.66,8.66,0,0,0,.76-3.08q.16-1.86.16-4.47V14.64q-2.29.32-4.48.79l.35-2.81Q21,12,24.5,11.6a68.1,68.1,0,0,1,7-.37,26.22,26.22,0,0,1,7,.86,15.28,15.28,0,0,1,5.42,2.65,12.05,12.05,0,0,1,3.54,4.51,15.25,15.25,0,0,1,1.26,6.45Z"/></g></g></svg>