<svg xmlns="http://www.w3.org/2000/svg" viewBox="0 0 158.34 147.67"><defs><style>.cls-1{fill:#f1f1f2;}.cls-2{fill:#69e6d5;}</style></defs><title>Asset 1</title><g id="Layer_2" data-name="Layer 2"><g id="Layer_1-2" data-name="Layer 1"><path class="cls-1" d="M51.39,145.19a.55.55,0,0,1-.25.06.6.6,0,0,1-.22-1.16,10.32,10.32,0,0,0,3-2.1,8.37,8.37,0,0,0,2.29-3.12,2,2,0,0,0-.08-1.56,3.38,3.38,0,0,0-3.18-1.54,6.41,6.41,0,0,0-1.08.09,5.05,5.05,0,0,0-2.15,1,2.69,2.69,0,0,0-1.17,1.85.62.62,0,1,1-1.24-.15,4,4,0,0,1,2.08-2.93,6.45,6.45,0,0,1,3.58-1,4.47,4.47,0,0,1,4.2,2.18,2.56,2.56,0,0,1,.39,1.36q0,1.9-2.22,4.25A11.91,11.91,0,0,1,51.39,145.19Z"/><path class="cls-1" d="M63.21,144.82a1.85,1.85,0,0,1-1.64-.76A3.48,3.48,0,0,1,61,143a2.29,2.29,0,0,0-.23-.54A2.28,2.28,0,0,0,60,143l-2.81,2.72a.64.64,0,0,1-.42.15.53.53,0,0,1-.43-.18.51.51,0,0,1,0-.85l2.12-2.13q1.61-1.48,2.41-1.48a1.27,1.27,0,0,1,1.19,1,4.41,4.41,0,0,0,.63,1.33,1.68,1.68,0,0,0,1,.06,5.94,5.94,0,0,0,3-1.9,4.61,4.61,0,0,0,1.43-3.1,2,2,0,0,0-1-1.73,4.73,4.73,0,0,0-2.84-.8,6.19,6.19,0,0,0-3.46,1,.57.57,0,0,1-.85-.19.57.57,0,0,1,.19-.86,7.65,7.65,0,0,1,4.15-1.17,6.07,6.07,0,0,1,3.55,1,3.16,3.16,0,0,1,1.47,2.72,6.09,6.09,0,0,1-2,4.19A5.77,5.77,0,0,1,63.21,144.82Z"/><path class="cls-1" d="M77.34,145a.45.45,0,0,1-.28.09.63.63,0,0,1-.29-1.17,6.62,6.62,0,0,0,2.14-1.85A5,5,0,0,0,80,139.73a3.05,3.05,0,0,0-1-2.78,4.57,4.57,0,0,0-1.65-.93,7.24,7.24,0,0,0-2.21-.4,2.68,2.68,0,0,0-1.08.19,25.82,25.82,0,0,1-1.9,5.06,25.72,25.72,0,0,1-2.05,4,.54.54,0,0,1-.85.09.53.53,0,0,1-.09-.85,30.57,30.57,0,0,0,2.08-4.15,17.86,17.86,0,0,0,1.64-4.49.58.58,0,0,1,.26-.49,3.14,3.14,0,0,1,2-.57,7.53,7.53,0,0,1,2.75.57,5.81,5.81,0,0,1,2,1.1,4.28,4.28,0,0,1,1.42,3.2A5.83,5.83,0,0,1,80,142.63,7.44,7.44,0,0,1,77.34,145Z"/><path class="cls-1" d="M94.3,139.19q.06,2.59-2.72,5.7a.63.63,0,0,1-.48.22.55.55,0,0,1-.54-.34.56.56,0,0,1,.06-.66q2.41-2.62,2.47-4.69A3,3,0,0,0,92,137a4.05,4.05,0,0,0-2.81-.76,9.89,9.89,0,0,0-1.3.09q-.25,1-.76,3a15.25,15.25,0,0,1-2.25,4.91,9.88,9.88,0,0,1-5.17,3.38l-.23,0a.58.58,0,0,1-.57-.39q-.25-.63.35-.79a8.44,8.44,0,0,0,4.08-2.24,10.41,10.41,0,0,0,2-3.52q.15-.43,1.2-4.2a15.44,15.44,0,0,0-1.9.57.56.56,0,0,1-.79-.36q-.25-.59.31-.79a21,21,0,0,1,2.66-.66l.2-.94a.61.61,0,0,1,1.2.22l-.14.57a8.49,8.49,0,0,1,1-.06,5.42,5.42,0,0,1,3.74,1A4.21,4.21,0,0,1,94.3,139.19Z"/><path class="cls-1" d="M107.76,139.19q.06,2.59-2.72,5.7a.63.63,0,0,1-.48.22.55.55,0,0,1-.54-.34.56.56,0,0,1,.06-.66q2.41-2.62,2.47-4.69a3,3,0,0,0-1-2.39,4.05,4.05,0,0,0-2.81-.76,9.89,9.89,0,0,0-1.3.09q-.25,1-.76,3a15.25,15.25,0,0,1-2.25,4.91,9.88,9.88,0,0,1-5.17,3.38l-.23,0a.58.58,0,0,1-.57-.39q-.25-.63.35-.79a8.44,8.44,0,0,0,4.08-2.24,10.41,10.41,0,0,0,2-3.52q.15-.43,1.2-4.2a15.44,15.44,0,0,0-1.9.57.56.56,0,0,1-.79-.36q-.25-.59.31-.79a21,21,0,0,1,2.66-.66l.2-.94a.61.61,0,0,1,1.2.22l-.14.57a8.49,8.49,0,0,1,1-.06,5.42,5.42,0,0,1,3.74,1A4.21,4.21,0,0,1,107.76,139.19Z"/><path class="cls-1" d="M18.46,126a3.57,3.57,0,0,1-1.45-.25,2.31,2.31,0,0,1-.91-.7,3,3,0,0,1-.5-1,4.23,4.23,0,0,1-.16-1.18l-.11-11.39a2,2,0,0,0-.52-1.63,2,2,0,0,0-1.29-.41H8l-.3,13.65a3.09,3.09,0,0,1-.81,2.06A2.93,2.93,0,0,1,4.6,126a3,3,0,0,1-2.28-.83,2.79,2.79,0,0,1-.74-2.08l.51-13.71a2.1,2.1,0,0,1-1-.23,1.72,1.72,0,0,1-.64-.61,2.6,2.6,0,0,1-.33-.89,5.62,5.62,0,0,1-.09-1,5.09,5.09,0,0,1,.11-1,2.63,2.63,0,0,1,.41-1,2.57,2.57,0,0,1,.75-.72,2.21,2.21,0,0,1,1.2-.29h12l.83,0a7.23,7.23,0,0,1,1.24.16,10.1,10.1,0,0,1,1.39.41,4.19,4.19,0,0,1,1.3.77,5,5,0,0,1,1.16,1.27,5.42,5.42,0,0,1,.63,1.48,10.64,10.64,0,0,1,.29,1.64q.08.85.08,1.79l.11,11.66a3.25,3.25,0,0,1-.75,2.26A2.79,2.79,0,0,1,18.46,126Z"/><path class="cls-1" d="M29.68,120.15h.51a2,2,0,0,1,1.73.91,3.52,3.52,0,0,1,.61,2,3,3,0,0,1-.71,2,2.28,2.28,0,0,1-1.84.85H26a2,2,0,0,1-1.75-1,4.22,4.22,0,0,1-.64-2.4,14.36,14.36,0,0,1,.42-3.4,15.11,15.11,0,0,1,1.24-3.33q.47-.89,1-1.81l1-1.81q.3-.55.15-.75A2.21,2.21,0,0,0,27,111l-2.32-2.09a7.83,7.83,0,0,1-1-1.08,2.46,2.46,0,0,1-.42-1.5,3.4,3.4,0,0,1,3.55-3.41,3.18,3.18,0,0,1,1.52.33,4.64,4.64,0,0,1,1.08.8l6.21,5.9,3.94-5.21a3.91,3.91,0,0,1,1.08-1,3.35,3.35,0,0,1,1.78-.41,2.55,2.55,0,0,1,1.7.56,2.71,2.71,0,0,1,.89,1.35,3.79,3.79,0,0,1,.09,1.64,2.78,2.78,0,0,1-.64,1.43l-4.9,5.71q2,2.32,3.33,4.1t2.23,3.08a2.84,2.84,0,0,1,.37.75,3,3,0,0,1,.18,1,2.89,2.89,0,0,1-.29,1.34,3,3,0,0,1-.74.93,3,3,0,0,1-.92.54,2.58,2.58,0,0,1-.84.17,4.13,4.13,0,0,1-1.37-.21,3.05,3.05,0,0,1-1.25-1l-6-7.3L31.77,115a11.31,11.31,0,0,0-.71,1.11q-.39.68-.75,1.41t-.61,1.35a4.32,4.32,0,0,0-.28.92Q29.41,120.15,29.68,120.15Z"/><path class="cls-2" d="M57.58,125.9H51.94a8.18,8.18,0,0,1-1.29-.09,2.45,2.45,0,0,1-1-.39,2.18,2.18,0,0,1-.7-.83,4.42,4.42,0,0,1-.39-1.42l-2-16.58a3,3,0,0,1,.57-2.18,2.8,2.8,0,0,1,2.23-1.14,3.25,3.25,0,0,1,2.19.56,3,3,0,0,1,1.06,2.1l1.62,14.14h3.51a7.74,7.74,0,0,0,2.26-.31,4.1,4.1,0,0,0,1.73-1,4.38,4.38,0,0,0,1.07-1.89,9.83,9.83,0,0,0,.31-3L63,110.06a.92.92,0,0,0-.12-.49.25.25,0,0,0-.16-.08H60.56l.08,1.73a3,3,0,0,1-.81,2.45,3,3,0,0,1-2,.72,2.5,2.5,0,0,1-2-.81,2.83,2.83,0,0,1-.72-1.94L55,108.1a6.79,6.79,0,0,1,.23-1.79,3.73,3.73,0,0,1,.75-1.45,3.62,3.62,0,0,1,1.32-1,4.71,4.71,0,0,1,1.9-.35H64.4a6.24,6.24,0,0,1,1.71.22,3.49,3.49,0,0,1,1.33.7,3.24,3.24,0,0,1,.9,1.33,5.94,5.94,0,0,1,.33,2.13l.11,6.09a14.52,14.52,0,0,1-.87,5.54,9.35,9.35,0,0,1-6.08,5.71A14.13,14.13,0,0,1,57.58,125.9Z"/><path class="cls-2" d="M85.22,126a3.6,3.6,0,0,1-1.43-.25,2.55,2.55,0,0,1-.93-.66,2.47,2.47,0,0,1-.5-.91,3.28,3.28,0,0,1-.15-1q0-2.83,0-5.39t0-5.39a5.21,5.21,0,0,0-.21-1.64,2,2,0,0,0-.58-.91,1.74,1.74,0,0,0-.86-.38,6.63,6.63,0,0,0-1-.08H72.91a2.87,2.87,0,0,1-2-.75,2.76,2.76,0,0,1-.83-2.15,3.32,3.32,0,0,1,.68-2,2.5,2.5,0,0,1,2.15-.91h8.45a15.34,15.34,0,0,1,2.29.2,4.86,4.86,0,0,1,2.42,1.16,5.42,5.42,0,0,1,1.2,1.4,6.09,6.09,0,0,1,.63,1.55,8.73,8.73,0,0,1,.25,1.7q0,.89.08,1.81V123a3.59,3.59,0,0,1-.16,1.07,2.43,2.43,0,0,1-.53.92,3,3,0,0,1-.94.68A3.21,3.21,0,0,1,85.22,126Z"/><path class="cls-2" d="M96,120.15h.51a2,2,0,0,1,1.73.91,3.52,3.52,0,0,1,.61,2,3,3,0,0,1-.71,2,2.28,2.28,0,0,1-1.84.85h-4a2,2,0,0,1-1.75-1,4.22,4.22,0,0,1-.64-2.4,14.36,14.36,0,0,1,.42-3.4,15.11,15.11,0,0,1,1.24-3.33q.47-.89,1-1.81l1-1.81q.3-.55.15-.75a2.21,2.21,0,0,0-.38-.4L91,108.95a7.83,7.83,0,0,1-1-1.08,2.46,2.46,0,0,1-.42-1.5,3.4,3.4,0,0,1,3.55-3.41,3.18,3.18,0,0,1,1.52.33,4.64,4.64,0,0,1,1.08.8l6.21,5.9,3.94-5.21a3.91,3.91,0,0,1,1.08-1,3.35,3.35,0,0,1,1.78-.41,2.55,2.55,0,0,1,1.7.56,2.71,2.71,0,0,1,.89,1.35,3.79,3.79,0,0,1,.09,1.64,2.78,2.78,0,0,1-.64,1.43l-4.9,5.71q2,2.32,3.33,4.1t2.23,3.08a2.84,2.84,0,0,1,.37.75,3,3,0,0,1,.18,1,2.89,2.89,0,0,1-.29,1.34,3,3,0,0,1-.74.93,3,3,0,0,1-.92.54,2.58,2.58,0,0,1-.84.17,4.13,4.13,0,0,1-1.37-.21,3.05,3.05,0,0,1-1.25-1l-6-7.3L98.06,115a11.31,11.31,0,0,0-.71,1.11q-.39.68-.75,1.41T96,118.83a4.32,4.32,0,0,0-.28.92Q95.7,120.15,96,120.15Z"/><path class="cls-2" d="M124.1,125.9h-5.64a8.18,8.18,0,0,1-1.29-.09,2.45,2.45,0,0,1-1-.39,2.18,2.18,0,0,1-.7-.83,4.42,4.42,0,0,1-.39-1.42l-2-16.58a3,3,0,0,1,.57-2.18,2.8,2.8,0,0,1,2.23-1.14,3.25,3.25,0,0,1,2.19.56,3,3,0,0,1,1.06,2.1l1.62,14.14h3.51a7.74,7.74,0,0,0,2.26-.31,4.1,4.1,0,0,0,1.73-1,4.38,4.38,0,0,0,1.07-1.89,9.83,9.83,0,0,0,.31-3l-.11-3.83a.92.92,0,0,0-.12-.49.25.25,0,0,0-.16-.08h-2.11l.08,1.73a3,3,0,0,1-.81,2.45,3,3,0,0,1-2,.72,2.5,2.5,0,0,1-2-.81,2.83,2.83,0,0,1-.72-1.94l-.11-3.54a6.79,6.79,0,0,1,.23-1.79,3.73,3.73,0,0,1,.75-1.45,3.62,3.62,0,0,1,1.32-1,4.71,4.71,0,0,1,1.9-.35h5.21a6.24,6.24,0,0,1,1.71.22,3.49,3.49,0,0,1,1.33.7,3.24,3.24,0,0,1,.9,1.33,5.94,5.94,0,0,1,.33,2.13l.11,6.09a14.52,14.52,0,0,1-.87,5.54,9.35,9.35,0,0,1-6.08,5.71A14.13,14.13,0,0,1,124.1,125.9Z"/><path class="cls-2" d="M139.31,109.45h-.21q-2.7,0-2.7-2.83a6.35,6.35,0,0,1,.08-.87,2.49,2.49,0,0,1,.39-1,2.68,2.68,0,0,1,.89-.83,3.07,3.07,0,0,1,1.59-.35h12.94a10.41,10.41,0,0,1,2.25.24,4.52,4.52,0,0,1,1.88.89,4.59,4.59,0,0,1,1.31,1.81,8.63,8.63,0,0,1,.58,3l0,2.55a16.53,16.53,0,0,1-.87,6,12.51,12.51,0,0,1-2.56,4.33,10.59,10.59,0,0,1-3.72,2.6,11.3,11.3,0,0,1-4.35.87h-4.09a2.8,2.8,0,0,1-2-.59,4.19,4.19,0,0,1-.9-2l-1.92-7.88a3.7,3.7,0,0,1-.13-.58q-.06-.35-.14-.72a5.91,5.91,0,0,1-.12-.74c0-.25,0-.44,0-.59a3.85,3.85,0,0,1,.42-1.81A5,5,0,0,1,139.31,109.45Zm12.9,1.53a1.49,1.49,0,0,0-.64-1.21,2,2,0,0,0-1.06-.36l-5.45,0a4.55,4.55,0,0,0-1.36,1.74,4,4,0,0,0-.19,1,2.81,2.81,0,0,0,.08.63c0,.22.1.47.15.76l1.51,6.49h1.15a6.71,6.71,0,0,0,2-.35,5.37,5.37,0,0,0,2-1.22,5.88,5.88,0,0,0,1.47-2.34,9,9,0,0,0,.39-3.68Z"/><path class="cls-2" d="M41.54,66.17a154.3,154.3,0,0,0,4.09-16.91,2.87,2.87,0,0,1,2.54-2.36l2.9-.3a2.88,2.88,0,0,1,3,3.75,128.63,128.63,0,0,1-7.26,18,2.89,2.89,0,0,1-2.28,1.53h0A2.88,2.88,0,0,1,41.54,66.17Zm2.79-40.89c0-3.59,2.43-6.11,5.82-6.11s5.63,2.52,5.63,6.11a5.73,5.73,0,1,1-11.45,0Z"/><path class="cls-1" d="M121.27,9.7a22.38,22.38,0,0,0-10,1.2,4.32,4.32,0,0,0-2.16,6.47,4.26,4.26,0,0,0,5,1.64,13.78,13.78,0,0,1,6.51-.74c6.62.83,12,7.37,11.94,14s-.73,19.88-31.65,42.29a0,0,0,0,1,0,0Q97,71.79,93.7,69.18a0,0,0,0,1,0,0c8.64-12,12.32-27.3,11.44-37.49A22.3,22.3,0,0,0,82.35,9.57c-12.36.28-22,10.92-21.76,23.28.2,10.09,3.48,21.6,20.89,37.26a0,0,0,0,1,0,.06q-.7.66-1.48,1.28l.08-.07c-6.87,5.47-18.84,8.24-36.64,8.24l-.84,0c-.29,0,.27,0,0,0a16.94,16.94,0,0,1-2.85-.31,4.7,4.7,0,0,1-2.5-1.3,6,6,0,0,1-1.34-2.74,19.86,19.86,0,0,1-.43-4.56V62.84q0-15.11-8-18.8a0,0,0,0,1,0-.06q8-3.68,8-18.8V17.31a19.22,19.22,0,0,1,.43-4.52,5.91,5.91,0,0,1,1.34-2.69,4.69,4.69,0,0,1,2.5-1.3L40,8.75A4.41,4.41,0,0,0,38.66,0Q37.47.17,36.38.4A12,12,0,0,0,31,2.94,12.34,12.34,0,0,0,27.5,8.08a23.36,23.36,0,0,0-1.25,8.26v9q-.1,7.59-2,10.71a6.42,6.42,0,0,1-3.32,2.67A5.61,5.61,0,0,0,17.41,44a5.7,5.7,0,0,0,3.67,5.35l.46.19A6,6,0,0,1,24.28,52a13,13,0,0,1,1.49,4.37,39.27,39.27,0,0,1,.48,6.72v9a23.38,23.38,0,0,0,1.11,7.73,11.54,11.54,0,0,0,3.27,5A12.51,12.51,0,0,0,36,87.53a29,29,0,0,0,6.5.68c.29,0-.25,0,0,0h.84c22,0,36.37-4.3,44.64-12.48a0,0,0,0,1,0,0c3.07,2.45,6.47,5,10.25,7.66l2.45,1.72h0l2.45-1.72C118.81,72.49,129.2,62.54,135.07,53a37.57,37.57,0,0,0,6-20.21C141.28,21.17,132.81,10.94,121.27,9.7ZM87.13,63.53a0,0,0,0,1-.06,0C69.69,47.73,69.19,37.8,69.17,32.33A14,14,0,0,1,82.1,18.18,13.7,13.7,0,0,1,96.55,31.85l0,.4C97.33,40.43,94.23,53.33,87.13,63.53Z"/></g></g></svg>